# xmcd
#
# Track frame offsets: 
#        150
#        27320
#        90115
#        123440
#        146470
#        160390
#        181607
#        197845
#
# Disc length: 3292 seconds
#
# Revision: 1
# Processed by: cddbd v1.5.2PL0 Copyright (c) Steve Scherf et al.
# Submitted via: ExactAudioCopy v1.0b3
#
DISCID=5d0cda08
DTITLE=Central Band of the Royal Air Force - The Sword and the Crown
DYEAR=1993
DGENRE=Wind Band
TTITLE0=Sparke, Philip - A Pittsburgh Overture
TTITLE1=Gregson, Edward - The Sword and the Crown
TTITLE2=Jacob, Gordon - Ballad for Band
TTITLE3=Short, Michael - A Derbyshire Suite - I. On Stanton Moore
TTITLE4=Short, Michael - A Derbyshire Suite - II. The Cat and the Fidd
TTITLE4=le
TTITLE5=Short, Michael - A Derbyshire Suite - III. Lord Musgrave's Din
TTITLE5=ing Room
TTITLE6=Short, Michael - A Derbyshire Suite - IV. Well Dressing
TTITLE7=Sparke, Philip - Celebration
EXTD=YEAR: 1993
EXTT0=
EXTT1=
EXTT2=
EXTT3=
EXTT4=
EXTT5=
EXTT6=
EXTT7=
PLAYORDER=
